<svg xmlns="http://www.w3.org/2000/svg" xmlns:xlink="http://www.w3.org/1999/xlink" width="500" zoomAndPan="magnify" viewBox="0 0 375 374.999991" height="500" preserveAspectRatio="xMidYMid meet" version="1.0"><defs><clipPath id="66ed4d2d57"><path d="M 85.414062 88.09375 L 289 88.09375 L 289 286.84375 L 85.414062 286.84375 Z M 85.414062 88.09375 " clip-rule="nonzero"/></clipPath></defs><path fill="#21b67e" d="M 168.738281 232.160156 L 168.738281 282.25 C 158.730469 280.296875 148.953125 276.738281 139.863281 271.570312 L 139.863281 252.851562 C 141.332031 251.910156 142.777344 250.945312 144.222656 250.003906 C 151.179688 245.386719 157.949219 240.496094 164.5625 235.421875 C 165.960938 234.339844 167.339844 233.261719 168.738281 232.160156 Z M 168.738281 232.160156 " fill-opacity="1" fill-rule="nonzero"/><path fill="#21b67e" d="M 207.992188 196.792969 L 207.992188 281.859375 C 198.488281 283.925781 188.753906 284.546875 179.113281 283.71875 L 179.113281 223.617188 L 183.867188 219.550781 L 186.230469 217.53125 L 188.546875 215.441406 C 190.085938 214.039062 191.625 212.636719 193.164062 211.238281 C 196.214844 208.414062 199.222656 205.542969 202.183594 202.648438 C 203.675781 201.199219 205.144531 199.730469 206.589844 198.261719 Z M 207.992188 196.792969 " fill-opacity="1" fill-rule="nonzero"/><path fill="#21b67e" d="M 246.761719 151.570312 L 246.761719 263.644531 C 237.902344 270.582031 228.121094 275.75 217.882812 279.148438 L 217.882812 186.480469 C 218.433594 185.90625 218.964844 185.308594 219.515625 184.710938 C 225.113281 178.554688 230.554688 172.261719 235.789062 165.785156 C 239.53125 161.148438 243.203125 156.394531 246.761719 151.570312 Z M 246.761719 151.570312 " fill-opacity="1" fill-rule="nonzero"/><g clip-path="url(#66ed4d2d57)"><path fill="#15543c" d="M 241.824219 107.683594 C 236.800781 104.558594 231.519531 101.894531 226.078125 99.714844 C 220.617188 97.554688 214.992188 95.878906 209.277344 94.730469 C 203.5625 93.582031 197.753906 92.9375 191.96875 92.847656 C 186.183594 92.730469 180.375 93.121094 174.683594 94.085938 C 168.992188 95.027344 163.414062 96.453125 157.996094 98.402344 L 155.976562 99.140625 C 155.308594 99.390625 154.644531 99.691406 153.980469 99.941406 L 152.003906 100.769531 L 150.054688 101.664062 C 149.410156 101.964844 148.746094 102.261719 148.101562 102.582031 L 146.199219 103.570312 L 145.234375 104.054688 L 144.75 104.304688 L 144.292969 104.582031 L 142.433594 105.636719 C 137.496094 108.507812 132.835938 111.816406 128.523438 115.535156 C 124.207031 119.234375 120.210938 123.324219 116.632812 127.707031 C 113.050781 132.117188 109.882812 136.828125 107.175781 141.765625 C 104.464844 146.726562 102.214844 151.914062 100.472656 157.265625 C 98.726562 162.617188 97.464844 168.105469 96.707031 173.6875 C 95.949219 179.246094 95.699219 184.871094 95.949219 190.476562 C 96.433594 201.660156 99.003906 212.730469 103.457031 222.949219 C 105.683594 228.046875 108.367188 232.964844 111.46875 237.578125 C 112.980469 239.921875 114.65625 242.125 116.425781 244.285156 C 118.191406 246.445312 120.027344 248.511719 121.980469 250.507812 L 114.933594 249.523438 C 116.679688 248.488281 118.375 247.476562 120.074219 246.421875 C 121.773438 245.386719 123.472656 244.332031 125.148438 243.253906 C 128.523438 241.117188 131.851562 238.910156 135.132812 236.660156 C 141.722656 232.136719 148.148438 227.40625 154.4375 222.46875 C 157.582031 219.988281 160.703125 217.484375 163.757812 214.933594 L 164.90625 213.96875 L 166.03125 212.984375 L 168.300781 211.007812 L 172.847656 207.082031 L 175.121094 205.105469 L 177.347656 203.105469 C 178.839844 201.753906 180.308594 200.421875 181.777344 199.042969 C 184.714844 196.308594 187.609375 193.554688 190.476562 190.726562 C 191.898438 189.328125 193.347656 187.925781 194.746094 186.480469 L 198.925781 182.160156 L 203.101562 177.84375 C 204.480469 176.398438 205.808594 174.882812 207.164062 173.410156 L 211.226562 168.980469 L 213.246094 166.75 L 215.222656 164.5 C 217.863281 161.492188 220.433594 158.414062 222.980469 155.335938 C 233.171875 142.980469 242.628906 130.050781 251.191406 116.570312 L 255.09375 110.414062 L 260.144531 115.515625 C 260.742188 116.109375 261.292969 116.707031 261.820312 117.257812 C 262.347656 117.832031 262.875 118.40625 263.402344 119.003906 C 264.460938 120.175781 265.46875 121.371094 266.457031 122.585938 C 268.429688 125.023438 270.3125 127.546875 272.035156 130.167969 C 275.523438 135.378906 278.53125 140.9375 280.964844 146.726562 C 285.851562 158.277344 288.5625 170.726562 288.953125 183.21875 C 289.296875 195.710938 287.320312 208.230469 283.144531 219.941406 C 278.964844 231.652344 272.632812 242.5625 264.503906 251.886719 C 260.441406 256.550781 255.988281 260.84375 251.167969 264.679688 C 246.347656 268.492188 241.183594 271.890625 235.765625 274.761719 C 224.933594 280.503906 213.019531 284.132812 200.945312 285.488281 C 188.871094 286.84375 176.589844 285.921875 164.972656 282.800781 C 159.167969 281.238281 153.519531 279.148438 148.125 276.53125 C 142.753906 273.910156 137.636719 270.8125 132.882812 267.25 C 137.933594 270.398438 143.234375 273.0625 148.699219 275.242188 C 154.1875 277.402344 159.832031 279.078125 165.570312 280.226562 C 171.308594 281.375 177.140625 281.996094 182.949219 282.066406 C 185.863281 282.109375 188.753906 282.019531 191.648438 281.8125 C 194.539062 281.582031 197.410156 281.238281 200.277344 280.757812 C 203.125 280.273438 205.949219 279.652344 208.75 278.941406 C 211.550781 278.207031 214.304688 277.355469 217.011719 276.371094 C 219.722656 275.382812 222.382812 274.28125 224.976562 273.0625 C 227.570312 271.84375 230.121094 270.511719 232.597656 269.066406 C 237.554688 266.171875 242.195312 262.796875 246.507812 259.074219 C 250.824219 255.355469 254.796875 251.222656 258.351562 246.789062 L 260.949219 243.414062 C 261.75 242.242188 262.578125 241.09375 263.378906 239.921875 C 264.136719 238.726562 264.917969 237.535156 265.652344 236.316406 L 266.707031 234.480469 L 267.238281 233.558594 L 267.511719 233.101562 L 267.765625 232.617188 C 270.449219 227.636719 272.675781 222.398438 274.398438 217.023438 C 277.84375 206.277344 279.355469 194.90625 278.738281 183.675781 C 278.117188 172.445312 275.476562 161.378906 270.886719 151.15625 C 268.589844 146.058594 265.859375 141.167969 262.691406 136.574219 C 261.109375 134.277344 259.410156 132.050781 257.617188 129.914062 C 256.722656 128.835938 255.804688 127.800781 254.863281 126.765625 C 254.382812 126.261719 253.921875 125.734375 253.441406 125.25 C 252.960938 124.746094 252.476562 124.242188 252.019531 123.804688 L 260.992188 122.75 C 252.363281 136.828125 242.675781 150.238281 232.300781 163.03125 C 229.707031 166.222656 227.042969 169.394531 224.359375 172.492188 L 222.335938 174.8125 L 220.273438 177.109375 L 216.117188 181.679688 C 214.71875 183.195312 213.363281 184.734375 211.9375 186.226562 L 207.648438 190.660156 L 203.355469 195.09375 C 201.910156 196.5625 200.460938 198.007812 198.992188 199.457031 C 196.054688 202.328125 193.070312 205.175781 190.0625 207.976562 C 188.546875 209.375 187.035156 210.753906 185.519531 212.132812 L 183.222656 214.199219 L 180.882812 216.222656 L 176.199219 220.238281 L 173.859375 222.261719 L 172.6875 223.269531 L 171.492188 224.257812 C 168.324219 226.878906 165.089844 229.449219 161.828125 231.976562 C 155.308594 237.003906 148.628906 241.875 141.765625 246.46875 C 138.347656 248.765625 134.859375 251.015625 131.367188 253.195312 C 129.625 254.277344 127.832031 255.355469 126.066406 256.410156 C 124.300781 257.46875 122.484375 258.5 120.71875 259.511719 L 116.746094 261.785156 L 113.671875 258.546875 C 111.511719 256.273438 109.46875 253.910156 107.519531 251.449219 C 105.589844 248.992188 103.730469 246.46875 102.054688 243.828125 C 98.636719 238.589844 95.71875 233.03125 93.355469 227.246094 C 90.992188 221.457031 89.15625 215.464844 87.871094 209.375 C 87.6875 208.617188 87.570312 207.839844 87.433594 207.082031 L 87.019531 204.785156 C 86.792969 203.246094 86.585938 201.707031 86.378906 200.167969 C 86.238281 198.605469 86.078125 197.066406 85.964844 195.503906 L 85.851562 193.164062 C 85.828125 192.382812 85.757812 191.601562 85.757812 190.820312 C 85.527344 178.371094 87.546875 165.925781 91.796875 154.28125 C 93.90625 148.46875 96.546875 142.84375 99.691406 137.515625 C 102.835938 132.1875 106.484375 127.203125 110.550781 122.566406 C 114.613281 117.949219 119.089844 113.699219 123.886719 109.910156 C 128.707031 106.121094 133.871094 102.789062 139.289062 99.964844 L 141.332031 98.910156 L 141.835938 98.65625 L 142.363281 98.425781 L 143.398438 97.945312 L 145.484375 96.980469 C 146.175781 96.660156 146.886719 96.40625 147.597656 96.105469 L 149.710938 95.257812 L 151.867188 94.5 C 152.578125 94.246094 153.289062 93.972656 154.023438 93.742188 L 156.207031 93.074219 C 162.035156 91.332031 168.003906 90.089844 174.019531 89.425781 C 186.046875 88.09375 198.28125 89.101562 209.851562 92.203125 C 221.441406 95.304688 232.367188 100.585938 241.824219 107.683594 Z M 241.824219 107.683594 " fill-opacity="1" fill-rule="nonzero"/></g><path fill="#21b67e" d="M 169.105469 139.558594 C 167.246094 138.527344 163.6875 137.035156 159.027344 137.035156 C 152.28125 137.035156 149.480469 140.960938 149.480469 144.589844 C 149.480469 149.410156 152.671875 151.777344 159.855469 154.902344 C 168.96875 158.898438 173.351562 163.878906 173.351562 171.667969 C 173.351562 181.152344 166.304688 188.269531 153.566406 188.269531 C 148.242188 188.269531 142.59375 186.710938 139.863281 184.871094 L 141.789062 177.683594 C 144.820312 179.542969 149.433594 181.011719 154.09375 181.011719 C 160.84375 181.011719 164.605469 177.523438 164.605469 172.425781 C 164.605469 167.601562 161.714844 164.636719 154.964844 161.8125 C 146.519531 158.414062 140.804688 153.292969 140.804688 145.578125 C 140.804688 136.597656 147.988281 129.867188 159.257812 129.867188 C 164.675781 129.867188 168.738281 131.199219 171.195312 132.464844 Z M 169.105469 139.558594 " fill-opacity="1" fill-rule="nonzero"/><path fill="#21b67e" d="M 153.082031 122.816406 L 160.109375 122.816406 L 160.109375 195.296875 L 153.082031 195.296875 Z M 153.082031 122.816406 " fill-opacity="1" fill-rule="nonzero"/></svg>